<?xml version="1.0" encoding="UTF-8" standalone="no"?>
<!-- Created with Inkscape (http://www.inkscape.org/) -->

<svg
   version="1.1"
   id="svg2"
   xml:space="preserve"
   width="1496"
   height="1496"
   viewBox="0 0 1496 1496"
   sodipodi:docname="fd2550b5552752a6d5871864d7ca025e.eps"
   xmlns:inkscape="http://www.inkscape.org/namespaces/inkscape"
   xmlns:sodipodi="http://sodipodi.sourceforge.net/DTD/sodipodi-0.dtd"
   xmlns="http://www.w3.org/2000/svg"
   xmlns:svg="http://www.w3.org/2000/svg"><defs
     id="defs6" /><sodipodi:namedview
     id="namedview4"
     pagecolor="#ffffff"
     bordercolor="#666666"
     borderopacity="1.0"
     inkscape:pageshadow="2"
     inkscape:pageopacity="0.0"
     inkscape:pagecheckerboard="0" /><g
     id="g8"
     inkscape:groupmode="layer"
     inkscape:label="ink_ext_XXXXXX"
     transform="matrix(1.3333333,0,0,-1.3333333,0,1496)"><g
       id="g10"
       transform="scale(0.1)"><path
         d="M 11220,0 H 0 V 11220 H 11220 V 0"
         style="fill:#ffffff;fill-opacity:1;fill-rule:nonzero;stroke:none"
         id="path12" /><path
         d="M 2361,3898.09 H 3413.75 V 2961.65 H 2361 Z m 0,1195.46 H 3413.75 V 4157.08 H 2361 Z M 3722.29,3898.09 H 4775.16 V 2961.65 H 3722.29 Z m 0,1195.46 H 4775.16 V 4157.08 H 3722.29 Z m 0,1195.49 H 4775.16 V 5352.51 H 3722.29 Z M 5083.57,3898.09 H 6136.43 V 2961.65 H 5083.57 Z m 0,1195.46 H 6136.43 V 4157.08 H 5083.57 Z m 0,1195.49 H 6136.43 V 5352.51 H 5083.57 Z M 6444.86,3898.09 H 7497.74 V 2961.65 H 6444.86 Z m 0,1195.46 H 7497.74 V 4157.08 H 6444.86 Z m 0,1195.49 H 7497.74 V 5352.51 H 6444.86 Z M 7806.43,5093.55 h 1052.6 v -936.47 h -1052.6 z m 0,1195.49 h 1052.6 V 5352.51 H 7806.43 Z M 2066.47,2500.33 c 85,-84.85 202.54,-133.57 322.64,-133.57 h 57.1 242.96 6141.78 c 120.04,0 237.6,48.72 322.58,133.66 84.78,84.88 133.56,202.35 133.56,322.46 V 6595.06 H 1932.91 V 2822.88 c 0,-120.11 48.78,-237.58 133.56,-322.55"
         style="fill:#616e7d;fill-opacity:1;fill-rule:nonzero;stroke:none"
         id="path14" /><path
         d="m 9287.09,6759.77 v 270.04 H 1932.91 v -270.04 h 7354.18"
         style="fill:#aad4c8;fill-opacity:1;fill-rule:nonzero;stroke:none"
         id="path16" /><path
         d="m 2689.17,8327.98 h -300.06 c -120.1,0 -237.64,-48.62 -322.64,-133.54 -84.78,-84.94 -133.56,-202.38 -133.56,-322.39 v -530.01 h 7354.18 v 530.01 c 0,120.01 -48.78,237.45 -133.69,322.39 -84.85,84.92 -202.41,133.54 -322.45,133.54 h -773.69 v -597.07 c 0,-111.38 -90.36,-201.74 -201.84,-201.74 h -425.24 c -111.49,0 -201.64,90.36 -201.64,201.74 v 597.07 H 3991.72 v -597.07 c 0,-111.38 -90.44,-201.74 -201.71,-201.74 h -425.4 c -111.51,0 -201.62,90.36 -201.62,201.74 v 597.07 h -473.82"
         style="fill:#aad4c8;fill-opacity:1;fill-rule:nonzero;stroke:none"
         id="path18" /><path
         d="m 9287.09,7029.81 v 312.23 H 1932.91 v -312.23 h 7354.18"
         style="fill:#82bfab;fill-opacity:1;fill-rule:nonzero;stroke:none"
         id="path20" /><path
         d="m 3364.61,7730.91 h 425.4 v 1122.33 h -425.4 v -525.26 -597.07"
         style="fill:#616e7d;fill-opacity:1;fill-rule:nonzero;stroke:none"
         id="path22" /><path
         d="m 7430.18,7730.91 h 425.24 v 1122.33 h -425.24 v -525.26 -597.07"
         style="fill:#616e7d;fill-opacity:1;fill-rule:nonzero;stroke:none"
         id="path24" /><path
         d="m 4775.16,5352.51 v 936.53 H 3722.29 v -936.53 h 1052.87"
         style="fill:#82bfab;fill-opacity:1;fill-rule:nonzero;stroke:none"
         id="path26" /><path
         d="m 6136.43,5352.51 v 936.53 H 5083.57 v -936.53 h 1052.86"
         style="fill:#82bfab;fill-opacity:1;fill-rule:nonzero;stroke:none"
         id="path28" /><path
         d="m 7497.74,5352.51 v 936.53 H 6444.86 v -936.53 h 1052.88"
         style="fill:#82bfab;fill-opacity:1;fill-rule:nonzero;stroke:none"
         id="path30" /><path
         d="m 8859.03,5352.51 v 936.53 h -1052.6 v -936.53 h 1052.6"
         style="fill:#82bfab;fill-opacity:1;fill-rule:nonzero;stroke:none"
         id="path32" /><path
         d="m 3413.75,4157.08 v 936.47 H 2361 v -936.47 h 1052.75"
         style="fill:#82bfab;fill-opacity:1;fill-rule:nonzero;stroke:none"
         id="path34" /><path
         d="m 4775.16,4157.08 v 936.47 H 3722.29 v -936.47 h 1052.87"
         style="fill:#82bfab;fill-opacity:1;fill-rule:nonzero;stroke:none"
         id="path36" /><path
         d="m 6136.43,4157.08 v 936.47 H 5083.57 v -936.47 h 1052.86"
         style="fill:#82bfab;fill-opacity:1;fill-rule:nonzero;stroke:none"
         id="path38" /><path
         d="m 7497.74,4157.08 v 936.47 H 6444.86 v -936.47 h 1052.88"
         style="fill:#aad4c8;fill-opacity:1;fill-rule:nonzero;stroke:none"
         id="path40" /><path
         d="m 8859.03,4157.08 v 936.47 h -1052.6 v -936.47 h 1052.6"
         style="fill:#82bfab;fill-opacity:1;fill-rule:nonzero;stroke:none"
         id="path42" /><path
         d="m 3413.75,2961.65 v 936.44 H 2361 v -936.44 h 1052.75"
         style="fill:#82bfab;fill-opacity:1;fill-rule:nonzero;stroke:none"
         id="path44" /><path
         d="m 4775.16,2961.65 v 936.44 H 3722.29 v -936.44 h 1052.87"
         style="fill:#aad4c8;fill-opacity:1;fill-rule:nonzero;stroke:none"
         id="path46" /><path
         d="m 6136.43,2961.65 v 936.44 H 5083.57 v -936.44 h 1052.86"
         style="fill:#82bfab;fill-opacity:1;fill-rule:nonzero;stroke:none"
         id="path48" /><path
         d="m 7497.74,2961.65 v 936.44 H 6444.86 v -936.44 h 1052.88"
         style="fill:#82bfab;fill-opacity:1;fill-rule:nonzero;stroke:none"
         id="path50" /></g></g></svg>
